<?xml version="1.0" encoding="iso-8859-1"?>
<!-- Uploaded to: SVG Repo, www.svgrepo.com, Generator: SVG Repo Mixer Tools -->
<!DOCTYPE svg PUBLIC "-//W3C//DTD SVG 1.1//EN" "http://www.w3.org/Graphics/SVG/1.1/DTD/svg11.dtd">
<svg fill="#000000" height="800px" width="800px" version="1.1" id="Capa_1" xmlns="http://www.w3.org/2000/svg" xmlns:xlink="http://www.w3.org/1999/xlink" 
	 viewBox="0 0 477.778 477.778" xml:space="preserve">
<g>
	<path d="M364.033,430H113.745c-16.276,0-29.473,13.196-29.473,29.472v12.101c0,3.421,2.784,6.205,6.206,6.205H387.3
		c3.422,0,6.206-2.784,6.206-6.205v-12.101C393.506,443.196,380.31,430,364.033,430z"/>
	<polygon points="294.63,168.342 183.148,168.342 119.445,406.694 358.333,406.694 	"/>
	<path d="M152.494,143.333h172.798c8.794,0,15.926-7.132,15.926-15.926s-7.132-15.926-15.926-15.926h-36.953
		c18.165-12.792,31.369-32.178,35.623-54.916c0.497-2.66-0.218-5.397-1.945-7.482c-1.734-2.083-4.3-3.281-7.006-3.281h-35.817
		c0.202-1.656,0.505-3.282,0.505-4.993c0-22.535-18.275-40.81-40.81-40.81c-22.535,0-40.81,18.275-40.81,40.81
		c0,1.71,0.303,3.337,0.505,4.993h-35.809c-2.706,0-5.273,1.206-6.999,3.281c-1.725,2.085-2.449,4.822-1.951,7.482
		c4.254,22.737,17.458,42.124,35.623,54.916h-36.953c-8.796,0-15.926,7.132-15.926,15.926S143.698,143.333,152.494,143.333z"/>
</g>
</svg>