<?xml version="1.0" encoding="iso-8859-1"?>
<!-- Uploaded to: SVG Repo, www.svgrepo.com, Generator: SVG Repo Mixer Tools -->
<svg fill="#000000" height="800px" width="800px" version="1.1" id="Layer_1" xmlns="http://www.w3.org/2000/svg" xmlns:xlink="http://www.w3.org/1999/xlink" 
	 viewBox="0 0 512 512" xml:space="preserve">
<g>
	<g>
		<path d="M140.109,456.267V512h231.781v-55.733H140.109z M356.169,496.278h-0.001H155.831v-24.29h200.338V496.278z"/>
	</g>
</g>
<g>
	<g>
		<path d="M340.372,431.82v-39.828H171.627v39.828h-15.722v15.722h200.188V431.82H340.372z M324.65,431.82H187.348v-24.106H324.65
			V431.82z"/>
	</g>
</g>
<g>
	<g>
		<path d="M323.602,207.525v-15.722H195.733v15.722h16.77v152.574c0,4.366-3.144,7.786-8.385,7.786h-15.722v15.722h135.206v-15.722
			h-7.337c-5.241,0-8.385-3.42-8.385-7.786V207.525H323.602z M226.924,367.885c0.841-2.427,1.301-5.044,1.301-7.786V207.525h63.934
			v152.574c0,2.742,0.459,5.358,1.301,7.786H226.924z"/>
	</g>
</g>
<g>
	<g>
		<path d="M172.117,72.162v55.732h10.68l17.059,39.803h-11.46v15.722h143.591v-15.722h-11.843l17.059-39.804h10.679V72.162H172.117z
			 M303.041,167.697h-86.08l-17.058-39.804h120.198L303.041,167.697z M332.162,112.173H187.839V87.884h144.323V112.173z"/>
	</g>
</g>
<g>
	<g>
		<polygon points="283.774,31.443 283.774,15.722 268.053,15.722 268.053,0 252.331,0 252.331,15.722 235.561,15.722 
			235.561,31.443 252.331,31.443 252.331,48.213 243.946,48.213 243.946,63.935 276.438,63.935 276.438,48.213 268.053,48.213 
			268.053,31.443 		"/>
	</g>
</g>
</svg>